<svg aria-hidden="true" style="position:absolute;width:0;height:0" xmlns="http://www.w3.org/2000/svg" overflow="hidden">
  <defs>
    <symbol id="icon-lines" viewBox="0 0 40 21">
<line y1="0.5" x2="40" y2="0.5" stroke="black"/>
<line y1="10.5" x2="40" y2="10.5" stroke="black"/>
<line y1="20.5" x2="40" y2="20.5" stroke="black"/>
</symbol>
    <symbol id="icon-mail" viewBox="0 0 32 32">
      <path fill="var(--color1, #d1a954)" d="M25.909 22.195a.515.515 0 01-.353-.14l-5.937-5.57a.515.515 0 11.707-.751l5.937 5.57a.516.516 0 01-.354.892zM6.091 22.195a.514.514 0 01-.354-.891l5.939-5.57a.517.517 0 01.707.751l-5.939 5.57a.51.51 0 01-.353.14z"/>
      <path fill="var(--color1, #d1a954)" d="M29.42 27.374H2.579a2.583 2.583 0 01-2.58-2.58V7.204a2.583 2.583 0 012.58-2.58H29.42A2.583 2.583 0 0132 7.204v17.59a2.583 2.583 0 01-2.58 2.58zM2.58 5.657a1.55 1.55 0 00-1.548 1.548v17.59a1.55 1.55 0 001.548 1.548h26.841a1.55 1.55 0 001.548-1.548V7.205a1.55 1.55 0 00-1.548-1.548H2.58z"/>
      <path fill="var(--color1, #d1a954)" d="M16 18.592c-.686 0-1.372-.228-1.895-.683L.856 6.351a.518.518 0 01-.051-.729.52.52 0 01.729-.05l13.249 11.557c.659.575 1.774.575 2.432 0L30.448 5.591a.515.515 0 11.678.779L17.894 17.908c-.523.456-1.208.684-1.895.684z"/>
    </symbol>
    <symbol id="icon-phone" viewBox="0 0 32 32">
      <path fill="var(--color1, #d1a954)" d="M24.28 0H7.719a2.028 2.028 0 00-2.026 2.026v27.948c0 1.117.909 2.026 2.026 2.026H24.28a2.028 2.028 0 002.026-2.026V2.026A2.028 2.028 0 0024.28 0zM6.709 5.092h18.582v21.163H6.709V5.092zM7.72 1.015h16.561c.557 0 1.011.453 1.011 1.011v2.389H6.71V2.026c0-.557.453-1.011 1.011-1.011zm16.56 29.97H7.719a1.012 1.012 0 01-1.011-1.011v-3.043H25.29v3.043c0 .557-.453 1.011-1.011 1.011z"/>
      <path fill="var(--color1, #d1a954)" d="M16 27.38a1.664 1.664 0 000 3.326 1.664 1.664 0 000-3.326zm0 2.648a.987.987 0 11.001-1.97.987.987 0 01-.001 1.97zM13.699 3.225h4.602a.338.338 0 000-.676h-4.602a.338.338 0 000 .676zM12.481 3.225a.34.34 0 00.338-.339.34.34 0 00-.578-.24.34.34 0 000 .48.34.34 0 00.24.099z"/>
    </symbol>
    <symbol id="icon-placeholder" viewBox="0 0 32 32">
      <path fill="var(--color1, #d1a954)" d="M16.104 7.013c-2.255 0-4.091 1.836-4.091 4.091s1.836 4.091 4.091 4.091 4.091-1.836 4.091-4.091-1.836-4.091-4.091-4.091zm0 7.013c-1.611 0-2.922-1.311-2.922-2.922s1.311-2.922 2.922-2.922c1.611 0 2.922 1.311 2.922 2.922s-1.311 2.922-2.922 2.922z"/>
      <path fill="var(--color1, #d1a954)" d="M23.926 3.283C21.809 1.166 18.995 0 16.002 0s-5.808 1.166-7.924 3.283C4.161 7.2 3.674 14.569 7.024 19.034l8.979 12.967 8.965-12.949c3.363-4.483 2.876-11.852-1.041-15.769zm.092 15.085l-8.017 11.578-8.03-11.596c-3.038-4.051-2.603-10.706.933-14.241 1.896-1.896 4.416-2.94 7.098-2.94s5.202 1.044 7.098 2.94c3.536 3.535 3.971 10.19.919 14.259z"/>
    </symbol>
    <symbol id="icon-play" viewBox="0 0 32 32">
      <path fill="var(--color1, #d1a954)" d="M16 0C7.164 0 0 7.163 0 16s7.164 16 16 16 16-7.163 16-16S24.836 0 16 0zm5.53 16.848l-8 5A1.002 1.002 0 0112 21V11a1 1 0 011.53-.849l8 5a1 1 0 010 1.696z"/>
    </symbol>    
  </defs>
</svg>
